Run_40002
nRows=4
nColumns=164

# SIMM Motion File Header:
name Run_40002
datacolumns 164
datarows 4
otherdata 1
range 0.23000000 0.26000000
endheader
time	pelvis_tilt	pelvis_list	pelvis_rotation	pelvis_tx	pelvis_ty	pelvis_tz	hip_flexion_r	hip_adduction_r	hip_rotation_r	knee_angle_r	ankle_angle_r	hip_flexion_l	hip_adduction_l	hip_rotation_l	knee_angle_l	ankle_angle_l	lumbar_extension	lumbar_bending	lumbar_rotation	arm_flex_r	arm_add_r	arm_rot_r	elbow_flex_r	pro_sup_r	arm_flex_l	arm_add_l	arm_rot_l	elbow_flex_l	pro_sup_l	subtalar_angle_r	mtp_angle_r	subtalar_angle_l	mtp_angle_l	wrist_flex_r	wrist_dev_r	wrist_flex_l	wrist_dev_l	LASI_tx	LASI_ty	LASI_tz	RASI_tx	RASI_ty	RASI_tz	LPSI_tx	LPSI_ty	LPSI_tz	RPSI_tx	RPSI_ty	RPSI_tz	RTH1_tx	RTH1_ty	RTH1_tz	RTH2_tx	RTH2_ty	RTH2_tz	RTH3_tx	RTH3_ty	RTH3_tz	LTH1_tx	LTH1_ty	LTH1_tz	LTH2_tx	LTH2_ty	LTH2_tz	LTH3_tx	LTH3_ty	LTH3_tz	RTB1_tx	RTB1_ty	RTB1_tz	RTB2_tx	RTB2_ty	RTB2_tz	RTB3_tx	RTB3_ty	RTB3_tz	LTB1_tx	LTB1_ty	LTB1_tz	LTB2_tx	LTB2_ty	LTB2_tz	LTB3_tx	LTB3_ty	LTB3_tz	RCAL_tx	RCAL_ty	RCAL_tz	RTOE_tx	RTOE_ty	RTOE_tz	RMT5_tx	RMT5_ty	RMT5_tz	LCAL_tx	LCAL_ty	LCAL_tz	LTOE_tx	LTOE_ty	LTOE_tz	LMT5_tx	LMT5_ty	LMT5_tz	LACR_tx	LACR_ty	LACR_tz	RACR_tx	RACR_ty	RACR_tz	CLAV_tx	CLAV_ty	CLAV_tz	C7_tx	C7_ty	C7_tz	RUA1_tx	RUA1_ty	RUA1_tz	RUA2_tx	RUA2_ty	RUA2_tz	RUA3_tx	RUA3_ty	RUA3_tz	RLEL_tx	RLEL_ty	RLEL_tz	RMEL_tx	RMEL_ty	RMEL_tz	LUA1_tx	LUA1_ty	LUA1_tz	LUA2_tx	LUA2_ty	LUA2_tz	LUA3_tx	LUA3_ty	LUA3_tz	LLEL_tx	LLEL_ty	LLEL_tz	LMEL_tx	LMEL_ty	LMEL_tz	RFAsuperior_tx	RFAsuperior_ty	RFAsuperior_tz	RFAradius_tx	RFAradius_ty	RFAradius_tz	RFAulna_tx	RFAulna_ty	RFAulna_tz	LFAsuperior_tx	LFAsuperior_ty	LFAsuperior_tz	LFAradius_tx	LFAradius_ty	LFAradius_tz	LFAulna_tx	LFAulna_ty	LFAulna_tz
      0.23000000	    -12.90158213	     -2.93327632	    -12.50910477	      1.00282841	      0.97397727	     -0.33973940	     39.28895360	     13.10116289	      0.83287785	    -34.88446821	      6.74501645	     13.46507678	     -3.16671720	     -7.51019137	    -93.55246047	     -5.85959599	      1.71223064	      8.48901595	      3.95721237	    -37.37417530	    -23.38318063	    -12.94122857	    108.97152667	    102.49573869	    -30.93752934	    -13.80814102	     -2.85642529	    116.89282894	    103.63302193	      0.00000000	      0.00000000	      0.00000000	      0.00000000	      0.00000000	      0.00000000	      0.00000000	      0.00000000	      1.04690936	      1.00131081	     -0.46390279	      0.99515709	      1.02449511	     -0.22782234	      0.87894872	      1.06742012	     -0.43388591	      0.85280654	      1.06897662	     -0.32560307	      0.92908517	      0.90465316	     -0.17769246	      0.93850454	      0.75201012	     -0.20996399	      1.04288266	      0.62784805	     -0.21186617	      0.99063853	      0.86847830	     -0.51792739	      0.89633199	      0.72520719	     -0.48555380	      0.93838184	      0.58749974	     -0.48535681	      1.14690662	      0.39425216	     -0.29222670	      1.06276987	      0.34617270	     -0.23204960	      1.10009562	      0.21032472	     -0.32542754	      0.83959204	      0.41546926	     -0.43529496	      0.73096402	      0.50036704	     -0.48638634	      0.62147664	      0.43405326	     -0.44934498	      0.96739716	      0.09584955	     -0.33862867	      1.20888091	      0.07429475	     -0.35809109	      1.16249165	      0.04988535	     -0.26877705	      0.49726135	      0.55640325	     -0.42618542	      0.45031336	      0.32388539	     -0.43685830	      0.41891691	      0.38230542	     -0.52756544	      1.00595084	      1.51268798	     -0.49317905	      0.98452045	      1.47707401	     -0.17296572	      1.05462047	      1.45210360	     -0.29656106	      0.93443002	      1.51920129	     -0.34335741	      0.85156848	      1.40637027	     -0.12643475	      0.87997885	      1.34109868	     -0.08707414	      0.79142201	      1.28743479	     -0.05832520	      0.74439860	      1.23606297	     -0.03896182	      0.75002155	      1.20810885	     -0.12347445	      0.91446684	      1.42118620	     -0.56384276	      0.94723305	      1.34755978	     -0.59279632	      0.87863065	      1.28886629	     -0.63258491	      0.86287273	      1.22442338	     -0.65737264	      0.82675526	      1.20281077	     -0.57679551	      0.82808755	      1.16682534	     -0.02937622	      0.98622458	      1.11157556	     -0.10119866	      0.95081767	      1.06448675	     -0.06504715	      0.92562318	      1.17048042	     -0.63679385	      1.06793904	      1.16710869	     -0.50951136	      1.06648991	      1.10279859	     -0.54557320
      0.24000000	    -12.90243138	     -3.05338069	    -12.70785389	      0.99839786	      0.96700465	     -0.33991447	     39.84818884	     13.60527937	      1.44099474	    -40.20545230	     10.65555122	     17.21869241	     -4.23482413	     -7.41903869	    -98.17046900	     -4.04946513	      1.01444054	      8.82996847	      5.32275046	    -34.57047364	    -23.80636260	    -11.85466958	    107.10867845	    101.35599546	    -30.34662185	    -13.59699542	     -2.42454382	    112.91635996	    105.18073444	      0.00000000	      0.00000000	      0.00000000	      0.00000000	      0.00000000	      0.00000000	      0.00000000	      0.00000000	      1.04336590	      0.99593207	     -0.46562024	      0.99172347	      1.01751291	     -0.22561207	      0.87400578	      1.06187816	     -0.43540303	      0.84889337	      1.06264935	     -0.32661856	      0.92432834	      0.89919623	     -0.17711990	      0.93620693	      0.74592494	     -0.21142178	      1.04055869	      0.62177839	     -0.21410531	      0.99046856	      0.86239416	     -0.51686112	      0.90589752	      0.71455273	     -0.48661677	      0.95528116	      0.58037290	     -0.48721865	      1.13398187	      0.38825894	     -0.29763440	      1.04952083	      0.34631907	     -0.23365632	      1.07381680	      0.20903678	     -0.32932723	      0.86467453	      0.41048245	     -0.43737471	      0.75684009	      0.49638831	     -0.48886895	      0.64716028	      0.43160126	     -0.44964981	      0.92962776	      0.09805370	     -0.33996457	      1.17143645	      0.07287160	     -0.36164055	      1.12368862	      0.04996729	     -0.27001482	      0.52205723	      0.55505840	     -0.42392138	      0.47858352	      0.32229397	     -0.44071437	      0.44842374	      0.38226249	     -0.53072099	      1.00390421	      1.50549015	     -0.49305371	      0.98592820	      1.46906111	     -0.17063256	      1.05533514	      1.44423953	     -0.29602687	      0.93474090	      1.51305038	     -0.34052223	      0.85601352	      1.39190496	     -0.11870413	      0.88842106	      1.32641491	     -0.08407245	      0.80293271	      1.26900737	     -0.05267347	      0.75705968	      1.21823049	     -0.03202459	      0.76110335	      1.19021834	     -0.11674642	      0.91056825	      1.41382571	     -0.56130539	      0.94223326	      1.33955735	     -0.59127877	      0.87282079	      1.28083337	     -0.62945500	      0.85559568	      1.21730829	     -0.65494617	      0.82086078	      1.19625036	     -0.57361509	      0.84083654	      1.14839004	     -0.02445475	      0.99856170	      1.09588088	     -0.10009987	      0.96421807	      1.04818091	     -0.06438053	      0.91573984	      1.15832813	     -0.63685588	      1.06062785	      1.14317298	     -0.51188671	      1.05520497	      1.08119551	     -0.55165450
      0.25000000	    -12.75297278	     -3.14445923	    -12.55264776	      0.99453488	      0.96103939	     -0.34028582	     39.42857161	     13.87988478	      2.19713326	    -44.19954260	     14.34468951	     20.91824308	     -5.14060546	     -6.91970085	   -102.11096503	     -2.37795808	      0.24903661	      9.03103018	      6.29038078	    -31.55295331	    -24.19813017	    -10.63628744	    104.97796465	    100.75029590	    -29.84180807	    -13.36675295	     -1.88535331	    108.91877475	    106.46361288	      0.00000000	      0.00000000	      0.00000000	      0.00000000	      0.00000000	      0.00000000	      0.00000000	      0.00000000	      1.03888638	      0.99155927	     -0.46719041	      0.98904029	      1.01160676	     -0.22329346	      0.86913322	      1.05727652	     -0.43588559	      0.84545192	      1.05706454	     -0.32673538	      0.92127283	      0.89414193	     -0.17696157	      0.93272473	      0.74045269	     -0.21306883	      1.03592043	      0.61515738	     -0.21664640	      0.99015288	      0.85802861	     -0.51651541	      0.91563988	      0.70591621	     -0.48786498	      0.97305215	      0.57530746	     -0.48929532	      1.11822478	      0.38034145	     -0.30254142	      1.03278232	      0.34425982	     -0.23599154	      1.04469643	      0.20569600	     -0.33184506	      0.89097602	      0.40670223	     -0.43913741	      0.78283175	      0.49251689	     -0.49118933	      0.67380004	      0.42820933	     -0.44993513	      0.89132036	      0.09974565	     -0.34068034	      1.13330914	      0.07214588	     -0.36460626	      1.08460808	      0.04990343	     -0.27077778	      0.54633865	      0.55152076	     -0.42232077	      0.50864720	      0.31805083	     -0.44362121	      0.47934505	      0.37874047	     -0.53342237	      1.00207976	      1.49900320	     -0.49276379	      0.98706884	      1.46186803	     -0.16874646	      1.05575742	      1.43739130	     -0.29556474	      0.93504258	      1.50791236	     -0.33830614	      0.86196279	      1.37813602	     -0.11278704	      0.89692489	      1.31324297	     -0.08134042	      0.81480830	      1.25182107	     -0.04735395	      0.77081264	      1.20076830	     -0.02525281	      0.77339724	      1.17274060	     -0.11022874	      0.90698160	      1.40755313	     -0.55901389	      0.93731441	      1.33257789	     -0.58955859	      0.86684716	      1.27407132	     -0.62603749	      0.84832591	      1.21125486	     -0.65197204	      0.81480147	      1.19062551	     -0.57009281	      0.85511919	      1.13053401	     -0.01986914	      1.01176688	      1.08037399	     -0.09979244	      0.97850624	      1.03226908	     -0.06403981	      0.90574729	      1.14768844	     -0.63658707	      1.05181438	      1.11998002	     -0.51400403	      1.04296691	      1.05997909	     -0.55643059
      0.26000000	    -12.59491109	     -3.19568880	    -12.01260195	      0.99133643	      0.95658116	     -0.34084279	     38.05464078	     13.86833611	      3.00470312	    -46.65439169	     17.88170848	     24.76737378	     -5.82000476	     -6.02172777	   -105.15214799	     -0.79558026	     -0.38299462	      9.09698019	      6.83700492	    -28.30981565	    -24.49182451	     -9.28653595	    102.58667814	    101.23020444	    -29.53753931	    -13.14338234	     -1.17539592	    105.01919929	    107.23323130	      0.00000000	      0.00000000	      0.00000000	      0.00000000	      0.00000000	      0.00000000	      0.00000000	      0.00000000	      1.03368661	      0.98853506	     -0.46841721	      0.98741935	      1.00712389	     -0.22115112	      0.86464518	      1.05395156	     -0.43505102	      0.84278431	      1.05300126	     -0.32558570	      0.92025574	      0.88988289	     -0.17725172	      0.92748450	      0.73609518	     -0.21454611	      1.02788962	      0.60814353	     -0.21931190	      0.98932686	      0.85600372	     -0.51725456	      0.92567474	      0.70025661	     -0.48936273	      0.99190459	      0.57346350	     -0.49141474	      1.09835961	      0.37064837	     -0.30697704	      1.01142479	      0.33969519	     -0.23898056	      1.01214523	      0.20041137	     -0.33296648	      0.91891843	      0.40489769	     -0.44038003	      0.80892007	      0.48873277	     -0.49319034	      0.70158915	      0.42346189	     -0.45003394	      0.85246954	      0.10094209	     -0.34079739	      1.09441007	      0.07200542	     -0.36649831	      1.04524768	      0.04967303	     -0.27100482	      0.56967361	      0.54464633	     -0.42168399	      0.54146529	      0.30992965	     -0.44511550	      0.51215603	      0.37008579	     -0.53531083	      1.00046141	      1.49370205	     -0.49233566	      0.98808772	      1.45595509	     -0.16748749	      1.05584693	      1.43209091	     -0.29525598	      0.93512987	      1.50409434	     -0.33689258	      0.86957333	      1.36583233	     -0.10952600	      0.90546769	      1.30260874	     -0.07898049	      0.82720694	      1.23690983	     -0.04255244	      0.78626428	      1.18444989	     -0.01880406	      0.78744418	      1.15646204	     -0.10400330	      0.90368599	      1.40299892	     -0.55711862	      0.93243527	      1.32717499	     -0.58756451	      0.86043814	      1.26949189	     -0.62234524	      0.84081313	      1.20716351	     -0.64843628	      0.80840651	      1.18671395	     -0.56627626	      0.87190092	      1.11457012	     -0.01605668	      1.02626078	      1.06582397	     -0.10096022	      0.99429488	      1.01771492	     -0.06420029	      0.89557987	      1.13990575	     -0.63589901	      1.04080729	      1.09878264	     -0.51591766	      1.02915370	      1.04019613	     -0.55935507
